<?xml version="1.0" encoding="UTF-8" standalone="no"?>
<!DOCTYPE svg PUBLIC "-//W3C//DTD SVG 1.1//EN"
 "http://www.w3.org/Graphics/SVG/1.1/DTD/svg11.dtd">
<!-- Generated by graphviz version 2.47.0 (20210316.0004)
 -->
<!-- Title: dependencies Pages: 1 -->
<svg width="864pt" height="284pt"
 viewBox="0.00 0.00 864.00 284.00" xmlns="http://www.w3.org/2000/svg" xmlns:xlink="http://www.w3.org/1999/xlink">
<g id="graph0" class="graph" transform="scale(1 1) rotate(0) translate(4 280)">
<title>dependencies</title>
<polygon fill="white" stroke="transparent" points="-4,4 -4,-280 860,-280 860,4 -4,4"/>
<text text-anchor="start" x="407.01" y="-42.4" font-family="Times-12" font-weight="bold" font-size="14.00">Legend</text>
<polygon fill="#ffffb3" stroke="transparent" points="194,-10 194,-30 214,-30 214,-10 194,-10"/>
<text text-anchor="start" x="217.63" y="-15.4" font-family="Times-12" font-size="14.00"> &#160;Declarations</text>
<polygon fill="#8dd3c7" stroke="transparent" points="307,-10 307,-30 327,-30 327,-10 307,-10"/>
<text text-anchor="start" x="330.73" y="-15.4" font-family="Times-12" font-size="14.00"> &#160;Module</text>
<polygon fill="#80b1d3" stroke="transparent" points="393,-10 393,-30 413,-30 413,-10 393,-10"/>
<text text-anchor="start" x="416.78" y="-15.4" font-family="Times-12" font-size="14.00"> &#160;Bootstrap</text>
<polygon fill="#fdb462" stroke="transparent" points="490,-10 490,-30 510,-30 510,-10 490,-10"/>
<text text-anchor="start" x="513.67" y="-15.4" font-family="Times-12" font-size="14.00"> &#160;Providers</text>
<polygon fill="#fb8072" stroke="transparent" points="586,-10 586,-30 606,-30 606,-10 586,-10"/>
<text text-anchor="start" x="609.73" y="-15.4" font-family="Times-12" font-size="14.00"> &#160;Exports</text>
<g id="clust1" class="cluster">
<title>cluster_AppModule</title>
<polygon fill="none" stroke="black" stroke-dasharray="1,5" points="8,-70 8,-268 848,-268 848,-70 8,-70"/>
</g>
<g id="clust2" class="cluster">
<title>cluster_AppModule_declarations</title>
<polygon fill="none" stroke="black" points="168,-78 168,-130 840,-130 840,-78 168,-78"/>
</g>
<g id="clust7" class="cluster">
<title>cluster_AppModule_imports</title>
<polygon fill="none" stroke="black" points="16,-78 16,-130 160,-130 160,-78 16,-78"/>
</g>
<g id="clust9" class="cluster">
<title>cluster_AppModule_bootstrap</title>
<polygon fill="none" stroke="black" points="380,-208 380,-260 504,-260 504,-208 380,-208"/>
</g>
<!-- AddEmployeeComponent -->
<g id="node1" class="node">
<title>AddEmployeeComponent</title>
<polygon fill="#ffffb3" stroke="black" points="832.2,-122 669.8,-122 669.8,-86 832.2,-86 832.2,-122"/>
<text text-anchor="middle" x="751" y="-99.8" font-family="Times,serif" font-size="14.00">AddEmployeeComponent</text>
</g>
<!-- AppModule -->
<g id="node5" class="node">
<title>AppModule</title>
<polygon fill="#8dd3c7" stroke="black" points="483.66,-187 480.66,-191 459.66,-191 456.66,-187 400.34,-187 400.34,-151 483.66,-151 483.66,-187"/>
<text text-anchor="middle" x="442" y="-164.8" font-family="Times,serif" font-size="14.00">AppModule</text>
</g>
<!-- AddEmployeeComponent&#45;&gt;AppModule -->
<g id="edge1" class="edge">
<title>AddEmployeeComponent&#45;&gt;AppModule</title>
<path fill="none" stroke="black" d="M751,-122.28C751,-143.32 751,-175 751,-175 751,-175 493.67,-175 493.67,-175"/>
<polygon fill="black" stroke="black" points="493.67,-171.5 483.67,-175 493.67,-178.5 493.67,-171.5"/>
</g>
<!-- AppComponent -->
<g id="node2" class="node">
<title>AppComponent</title>
<polygon fill="#ffffb3" stroke="black" points="651.94,-122 546.06,-122 546.06,-86 651.94,-86 651.94,-122"/>
<text text-anchor="middle" x="599" y="-99.8" font-family="Times,serif" font-size="14.00">AppComponent</text>
</g>
<!-- AppComponent&#45;&gt;AppModule -->
<g id="edge2" class="edge">
<title>AppComponent&#45;&gt;AppModule</title>
<path fill="none" stroke="black" d="M599,-122.02C599,-139.37 599,-163 599,-163 599,-163 493.66,-163 493.66,-163"/>
<polygon fill="black" stroke="black" points="493.66,-159.5 483.66,-163 493.66,-166.5 493.66,-159.5"/>
</g>
<!-- DetailEmployeeComponent -->
<g id="node3" class="node">
<title>DetailEmployeeComponent</title>
<polygon fill="#ffffb3" stroke="black" points="528.3,-122 355.7,-122 355.7,-86 528.3,-86 528.3,-122"/>
<text text-anchor="middle" x="442" y="-99.8" font-family="Times,serif" font-size="14.00">DetailEmployeeComponent</text>
</g>
<!-- DetailEmployeeComponent&#45;&gt;AppModule -->
<g id="edge3" class="edge">
<title>DetailEmployeeComponent&#45;&gt;AppModule</title>
<path fill="none" stroke="black" d="M442,-122.11C442,-122.11 442,-140.99 442,-140.99"/>
<polygon fill="black" stroke="black" points="438.5,-140.99 442,-150.99 445.5,-140.99 438.5,-140.99"/>
</g>
<!-- EditEmployeeComponent -->
<g id="node4" class="node">
<title>EditEmployeeComponent</title>
<polygon fill="#ffffb3" stroke="black" points="337.93,-122 176.07,-122 176.07,-86 337.93,-86 337.93,-122"/>
<text text-anchor="middle" x="257" y="-99.8" font-family="Times,serif" font-size="14.00">EditEmployeeComponent</text>
</g>
<!-- EditEmployeeComponent&#45;&gt;AppModule -->
<g id="edge4" class="edge">
<title>EditEmployeeComponent&#45;&gt;AppModule</title>
<path fill="none" stroke="black" d="M257,-122.02C257,-139.37 257,-163 257,-163 257,-163 390.02,-163 390.02,-163"/>
<polygon fill="black" stroke="black" points="390.02,-166.5 400.02,-163 390.02,-159.5 390.02,-166.5"/>
</g>
<!-- AppComponent  -->
<g id="node7" class="node">
<title>AppComponent </title>
<polygon fill="#80b1d3" stroke="black" points="496.44,-252 387.56,-252 387.56,-216 496.44,-216 496.44,-252"/>
<text text-anchor="middle" x="442" y="-229.8" font-family="Times,serif" font-size="14.00">AppComponent </text>
</g>
<!-- AppModule&#45;&gt;AppComponent  -->
<g id="edge6" class="edge">
<title>AppModule&#45;&gt;AppComponent </title>
<path fill="none" stroke="black" stroke-dasharray="1,5" d="M442,-187.11C442,-187.11 442,-205.99 442,-205.99"/>
<polygon fill="black" stroke="black" points="438.5,-205.99 442,-215.99 445.5,-205.99 438.5,-205.99"/>
</g>
<!-- AppRoutingModule -->
<g id="node6" class="node">
<title>AppRoutingModule</title>
<polygon fill="#8dd3c7" stroke="black" points="152.27,-122 149.27,-126 128.27,-126 125.27,-122 23.73,-122 23.73,-86 152.27,-86 152.27,-122"/>
<text text-anchor="middle" x="88" y="-99.8" font-family="Times,serif" font-size="14.00">AppRoutingModule</text>
</g>
<!-- AppRoutingModule&#45;&gt;AppModule -->
<g id="edge5" class="edge">
<title>AppRoutingModule&#45;&gt;AppModule</title>
<path fill="none" stroke="black" d="M88,-122.28C88,-143.32 88,-175 88,-175 88,-175 390,-175 390,-175"/>
<polygon fill="black" stroke="black" points="390,-178.5 400,-175 390,-171.5 390,-178.5"/>
</g>
</g>
</svg>
